<svg xmlns="http://www.w3.org/2000/svg" viewBox="0 0 240 340" fill="none">
  <defs>
    <linearGradient id="iconGrad" x1="0" y1="0" x2="0" y2="1">
      <stop offset="0%" stop-color="#ffd700"/>
      <stop offset="20%" stop-color="#ffb800"/>
      <stop offset="50%" stop-color="#e8a000"/>
      <stop offset="80%" stop-color="#cc8400"/>
      <stop offset="100%" stop-color="#a06800"/>
    </linearGradient>
    <linearGradient id="iconShine" x1="0" y1="0" x2="1" y2="0.5">
      <stop offset="0%" stop-color="#ffffff" stop-opacity="0.35"/>
      <stop offset="40%" stop-color="#ffffff" stop-opacity="0"/>
      <stop offset="100%" stop-color="#ffffff" stop-opacity="0.15"/>
    </linearGradient>
    <linearGradient id="iconInner" x1="0" y1="0" x2="0" y2="1">
      <stop offset="0%" stop-color="#ffd700"/>
      <stop offset="100%" stop-color="#b8860b"/>
    </linearGradient>
  </defs>

  <rect x="0" y="0" width="240" height="340" rx="16" fill="url(#iconGrad)"/>
  <rect x="0" y="0" width="240" height="340" rx="16" fill="url(#iconShine)"/>
  <rect x="8" y="8" width="224" height="324" rx="12" fill="none" stroke="#ffd700" stroke-width="0.8" opacity="0.5"/>

  <path d="M20,20 L80,20 L80,80 L50,95 L20,80 Z" fill="url(#iconInner)" opacity="0.45"/>
  <path d="M20,20 L80,20 L80,80 L50,95 L20,80 Z" fill="none" stroke="#ffd700" stroke-width="0.7" opacity="0.6"/>

  <polygon points="170,30 175,45 190,45 178,54 182,68 170,59 158,68 162,54 150,45 165,45" fill="#ffd700" opacity="0.3"/>

  <path d="M40,100 L200,100 L200,200 L120,215 L40,200 Z" fill="url(#iconInner)" opacity="0.18"/>
  <path d="M40,100 L200,100 L200,200 L120,215 L40,200 Z" fill="none" stroke="#ffd700" stroke-width="0.7" opacity="0.4"/>

  <rect x="30" y="222" width="180" height="24" rx="2" fill="url(#iconInner)" opacity="0.25"/>
  <line x1="30" y1="222" x2="210" y2="222" stroke="#ffd700" stroke-width="0.7" opacity="0.6"/>
  <line x1="30" y1="246" x2="210" y2="246" stroke="#ffd700" stroke-width="0.5" opacity="0.4"/>

  <line x1="120" y1="260" x2="120" y2="310" stroke="#ffd700" stroke-width="0.5" opacity="0.4"/>
  <line x1="35" y1="270" x2="110" y2="270" stroke="#ffd700" stroke-width="0.3" opacity="0.25"/>
  <line x1="35" y1="285" x2="110" y2="285" stroke="#ffd700" stroke-width="0.3" opacity="0.25"/>
  <line x1="35" y1="300" x2="110" y2="300" stroke="#ffd700" stroke-width="0.3" opacity="0.25"/>
  <line x1="130" y1="270" x2="205" y2="270" stroke="#ffd700" stroke-width="0.3" opacity="0.25"/>
  <line x1="130" y1="285" x2="205" y2="285" stroke="#ffd700" stroke-width="0.3" opacity="0.25"/>
  <line x1="130" y1="300" x2="205" y2="300" stroke="#ffd700" stroke-width="0.3" opacity="0.25"/>

  <line x1="60" y1="325" x2="180" y2="325" stroke="#ffd700" stroke-width="0.5" opacity="0.4"/>
  <rect x="0" y="0" width="240" height="340" rx="16" fill="none" stroke="#ffd700" stroke-width="2" opacity="0.5"/>
</svg>
